<svg width="450" height="298" viewBox="0 0 450 298" fill="none" xmlns="http://www.w3.org/2000/svg">
<g clip-path="url(#clip0_507_2)">
<path d="M303.603 1.46774C239.475 9.83523 198.396 72.5914 216.279 134.834C218.844 143.788 219.43 140.045 216.938 130.577C198.323 58.9392 261.792 -6.16576 338.746 5.65148C392.248 13.8722 416.14 40.0022 424.349 99.0884C425.594 108.557 428.306 116.998 435.415 133.953C450.733 170.579 450.88 173.955 437.101 173.955C425.961 174.029 425.888 174.249 423.542 194.654C418.339 240.015 416.8 242.29 392.834 240.822C377.663 239.941 376.051 240.015 374.805 242.51C373.192 245.519 370.774 273.558 372.166 272.163C372.679 271.65 373.632 265.19 374.365 257.777C375.904 240.602 375.757 240.749 391.148 242.95C416.36 246.474 419.951 242.29 425.081 202.361C428.673 174.322 427.573 176.891 436.588 176.891C453.371 176.891 453.738 171.24 439.373 135.568C431.091 114.943 428.746 107.309 427.28 96.0791C419.218 35.5983 390.928 7.48646 331.27 0.807152C316.612 -0.183783 315.513 -0.0862259 303.603 1.46774Z" fill="black"/>
<path d="M90.8795 21.8729C56.7997 29.8 23.2329 55.5631 8.50164 85.1429C-3.73777 109.511 -2.71171 134.54 11.873 171.754C17.0766 185.186 18.6889 191.718 21.2541 210.655C26.6042 250.437 30.9284 256.97 45.4398 247.355C51.8893 243.024 52.329 243.318 62.443 257.19C90.6596 296.092 96.8893 298.073 123.933 276.641C128.99 272.604 130.896 273.705 138.445 284.862C144.308 293.523 151.637 301.89 148.046 295.798C133.314 270.916 129.87 269.228 115.945 279.724C95.9365 294.917 91.3925 292.715 63.8355 254.328C53.8681 240.455 52.2557 239.574 44.3404 244.419C31.4414 252.272 29.7557 249.116 24.3323 206.912C21.987 188.782 20.4479 182.176 15.6841 170.212C-3.15145 122.576 1.17266 92.703 31.3681 62.3158C80.7655 12.6246 145.92 10.7163 189.967 57.6182C198.836 67.0867 199.788 67.8207 195.611 61.802C173.844 30.901 127.744 13.3586 90.8795 21.8729Z" fill="black"/>
<path d="M302.321 65.3251C291.547 77.2158 275.57 110.833 280.7 110.833C281.36 110.833 283.046 107.089 284.365 102.465C288.689 87.565 297.484 73.032 308.331 62.8296C310.236 61.068 311.482 58.7926 311.189 57.8384C310.896 56.8842 306.865 60.2606 302.321 65.3251Z" fill="black"/>
<path d="M310.383 73.766C299.976 87.0512 288.909 112.3 292.06 115.457C292.866 116.264 294.112 113.695 295.065 109.291C297.557 98.7217 303.494 86.7576 310.969 77.6562C314.487 73.3256 317.345 69.4355 317.345 68.9951C317.345 66.7197 314.121 68.9217 310.383 73.766Z" fill="black"/>
<path d="M316.466 89.6936C308.77 102.832 303.933 116.704 307.085 116.704C307.891 116.704 308.551 115.53 308.551 114.062C308.551 112.594 311.775 104.961 315.66 97.1803C322.989 82.5739 323.502 77.6562 316.466 89.6936Z" fill="black"/>
<path d="M242.809 180.562C259.593 201.847 260.839 204.269 261.425 217.261C262.085 230.253 264.283 228.858 264.503 215.353C264.576 205.811 262.451 201.407 250.578 187.167C238.412 172.561 232.549 167.57 242.809 180.562Z" fill="black"/>
<path d="M86.1713 45.968C82.8491 48.2187 80.797 51.5463 78.5983 58.1034L77.6697 60.9414H73.6146C70.7804 60.9414 68.6796 61.235 66.774 61.9201C63.5493 63.0454 62.3767 63.9753 61.4484 66.2749C60.8621 67.6941 60.8621 68.2813 61.3506 69.5045C62.1322 71.4128 64.3309 73.4192 67.3604 74.936C71.8556 77.236 73.712 78.7527 73.5655 80.0739C73.3214 82.6675 73.0282 82.7163 70.8783 80.6123C68.3377 78.1655 65.9433 77.4807 62.4745 78.3123C59.6404 78.9975 58.4677 79.5847 55.0477 82.1291L52.5071 83.9887L49.4776 82.9611C44.1029 81.1995 40.976 81.8355 36.9696 85.5546C34.3799 87.9522 32.1812 91.1818 29.6893 96.5153C27.9304 100.136 27.8326 100.577 27.8326 105.47C27.7838 111.146 28.3701 113.25 31.1551 116.969C34.1356 120.982 39.7546 125.288 46.546 128.811C50.2593 130.719 50.9922 132.04 48.8913 132.824C47.6699 133.313 43.8098 132.774 42.2465 131.894C41.7089 131.649 40.9273 131.404 40.5363 131.404C40.0965 131.404 37.8978 130.524 35.6502 129.447C30.1779 126.902 28.0281 126.022 27.2952 126.022C26.9043 126.022 26.0248 126.56 25.2431 127.196C22.7512 129.3 22.116 134.292 23.2887 142.267C24.3636 149.118 27.344 151.956 33.5492 151.956C35.5037 151.956 36.8718 152.201 37.1649 152.543C37.4581 152.886 37.8 154.696 37.9957 156.507C38.191 158.317 38.6795 160.568 39.1192 161.498C39.9012 163.113 39.9012 163.406 39.0217 166.783C38.3376 169.425 38.0931 172.067 38.0444 177.401C38.0444 183.713 38.1422 184.643 38.9726 185.769C41.0738 188.509 42.0999 188.9 47.1324 188.9C51.9208 188.9 52.6045 188.704 58.7122 185.915C61.4484 184.643 62.1813 184.741 63.8912 186.649C64.38 187.188 65.6993 188.215 66.8228 188.851C72.1488 191.934 79.4778 191.543 87.9794 187.579C90.4221 186.503 95.2593 182.197 95.699 180.777C96.09 179.603 97.9468 179.554 99.6567 180.68C100.487 181.218 102.002 181.511 104.005 181.511C106.79 181.561 107.279 181.414 108.598 180.141C111.139 177.695 110.797 176.227 106.155 170.453L105.08 169.18L108.207 166.244C110.308 164.287 111.921 162.183 113.045 159.981C113.973 158.122 114.803 156.507 114.901 156.409C114.95 156.262 115.78 156.556 116.709 156.996C118.028 157.632 119.836 157.828 123.989 157.828H129.559L132.393 159.932C134.005 161.106 137.279 164.238 139.673 166.881C148.614 176.667 155.553 180.777 167.914 183.518C172.214 184.497 181.644 184.35 186.09 183.273C197.181 180.631 206.367 176.569 216.872 169.572C222.051 166.147 225.569 163.651 230.797 159.59C251.562 143.491 254.494 141.533 260.992 139.43C265.683 137.962 268.761 139.723 274.429 147.307C280.096 154.843 282.784 156.556 288.94 156.556C292.507 156.507 293.631 156.311 296.904 154.941C300.764 153.277 309.608 147.699 309.657 146.818C309.706 146.525 309.119 146.28 308.338 146.182C307.409 146.084 306.139 146.623 304.038 148.041C300.324 150.586 294.852 153.131 291.53 153.913C288.256 154.647 284.934 153.963 282.149 151.907C281.074 151.173 278.582 148.335 276.53 145.644C272.132 139.821 269.543 137.619 266.123 136.787C259.868 135.172 252.833 138.744 233.24 153.375C227.963 157.29 222.393 161.4 220.878 162.477C216.53 165.462 211.106 169.034 210.031 169.572C209.494 169.866 208.321 170.551 207.393 171.089C199.82 175.639 191.22 178.918 182.523 180.582C176.611 181.658 174.315 181.561 165.324 179.897C160.878 179.016 155.553 176.765 150.813 173.633C148.175 171.872 136.497 160.617 136.497 159.785C136.497 159.541 137.426 159.296 138.598 159.296C142.214 159.296 146.465 157.534 149.494 154.745C152.963 151.614 154.087 149.363 154.087 145.742L154.136 142.903L158.24 138.598C160.585 136.2 162.784 134.34 163.272 134.34C164.543 134.34 169.673 131.6 171.334 129.985C174.119 127.392 174.852 125.63 174.803 121.618C174.755 117.899 174.706 117.703 171.481 111.538C170.699 110.07 170.699 110.021 172.605 107.966C174.266 106.204 174.559 105.47 174.999 102.436C175.927 96.3197 174.657 92.2582 170.211 87.1202C168.842 85.6034 167.768 84.2334 167.768 84.0375C167.768 83.8419 168.647 82.7655 169.722 81.6887C172.898 78.3615 174.608 74.9852 174.608 72.098C174.608 69.8472 174.412 69.4068 172.751 67.8409C169.233 64.4645 159.754 58.9842 152.084 55.8034C143.973 52.4759 144.168 52.5739 136.497 51.1547C132.588 50.4207 129.901 51.0079 127.507 53.1123C126.627 53.9439 125.699 54.5802 125.504 54.5802C125.308 54.5802 123.061 53.0143 120.52 51.1547C117.002 48.5615 115.487 47.7295 114.266 47.7295C111.676 47.7295 108.158 50.7635 105.422 55.363C104.983 56.1458 104.738 55.999 103.321 53.8951C101.025 50.6167 97.3605 46.9956 95.0152 45.8212C92.2302 44.3532 88.37 44.4512 86.1713 45.968ZM93.7447 47.5339C96.0413 48.4635 100.341 52.8675 102.246 56.2438L103.761 58.8374L102.931 62.2137C102.491 64.0729 101.953 65.7857 101.758 66.0305C101.513 66.3241 100.536 66.2749 99.266 65.8837C92.1811 63.8773 86.9042 62.605 83.6307 62.1646C82.4093 62.0178 81.0901 61.5774 80.797 61.1862C79.2333 59.2778 84.1192 49.3443 87.5396 47.5339C89.2986 46.604 91.546 46.604 93.7447 47.5339ZM117.784 51.7911C118.81 52.7207 120.911 54.2375 122.426 55.2651C125.308 57.1734 125.455 57.4182 126.041 60.6966C126.188 61.7733 127.214 64.2689 128.289 66.2261C129.315 68.1833 130.145 70.0428 130.048 70.3364C129.461 72.098 120.715 73.4192 118.272 72.098C117.686 71.8044 116.562 71.364 115.732 71.1684C110.846 69.896 108.647 68.1833 108.647 65.5409C108.647 64.9537 108.11 63.2413 107.425 61.7733C106.302 59.1798 106.302 58.935 106.986 57.4182C110.26 50.3231 113.973 48.4147 117.784 51.7911ZM142.116 54.4334C149.787 56.8798 157.654 60.3542 163.615 63.9753C164.445 64.4645 165.422 65.0029 165.813 65.1497C166.888 65.6389 170.797 68.7705 171.774 69.9449C173.386 71.9024 172.751 74.1532 169.331 78.7039C166.937 81.8847 165.276 82.9611 164.201 82.0315C163.81 81.7379 161.318 81.3463 158.68 81.1507C152.035 80.7591 150.666 80.1719 147.002 76.2084C144.51 73.566 143.337 72.6852 141.237 71.9512C139.136 71.266 138.305 71.1684 137.084 71.6088C136.302 71.9024 135.471 72 135.325 71.8532C134.641 71.1684 135.178 70.3364 137.523 68.5749C139.82 66.8621 141.383 64.4645 141.383 62.7029C141.383 61.3818 139.429 60.1094 135.862 58.935C131.464 57.5162 128.191 56.097 128.191 55.6078C128.191 55.0206 129.755 53.7483 130.878 53.4547C132.54 52.9655 139.526 53.6015 142.116 54.4334ZM129.461 58.8862C129.706 59.0818 131.22 59.669 132.833 60.1586C136.399 61.1862 139.038 62.4582 139.282 63.1922C139.526 63.8773 135.862 67.5473 134.005 68.4769C132.686 69.1621 132.54 69.1132 131.611 67.9389C130.488 66.4709 127.703 60.7458 127.703 59.8158C127.703 58.6414 128.582 58.1522 129.461 58.8862ZM76.3017 63.5837C76.7415 64.0729 76.4483 67.2049 75.6667 70.2385C75.2757 71.7064 74.8847 73.468 74.8359 74.1532C74.6406 75.6212 72.5394 76.1104 71.5133 74.936C71.1714 74.4956 70.7317 74.1532 70.4873 74.1532C69.7544 74.1532 64.9664 71.0216 64.0869 69.994C61.9369 67.4985 64.1843 64.5133 68.9727 63.5349C71.7578 62.9477 75.6667 62.9965 76.3017 63.5837ZM106.448 65.3453C107.474 67.6941 106.986 68.7217 105.276 67.8409C104.25 67.2537 103.907 65.3453 104.543 63.6817C104.934 62.605 105.373 62.9965 106.448 65.3453ZM86.0738 64.6601C91.6926 66.0305 95.1127 66.9113 97.6536 67.6941C99.0216 68.0857 100.39 68.4769 100.732 68.5749C101.074 68.6729 101.318 69.6025 101.318 70.9724C101.318 72.196 101.758 75.1808 102.295 77.6763C102.881 80.1231 103.126 82.2759 102.931 82.4719C102.149 83.1567 94.3798 84.4291 90.911 84.4291C88.4679 84.4291 86.7576 84.1355 85.2431 83.4503C82.5068 82.1783 76.3996 77.6763 76.3996 76.8935C76.3996 76.5999 76.7415 75.034 77.1325 73.5172C77.5231 71.9512 77.8654 70.2876 77.8654 69.7981C77.8654 69.3577 78.2073 67.7921 78.5983 66.4217C79.3312 63.9753 79.4286 63.8773 81.0901 63.8773C82.0671 63.8773 84.3149 64.2197 86.0738 64.6601ZM106.595 70.5321C107.768 71.364 107.963 73.0276 107.23 76.2084C106.79 78.1655 105.52 79.7803 104.787 79.3399C104.25 78.9975 103.566 70.9724 104.005 70.2385C104.445 69.5536 105.325 69.6025 106.595 70.5321ZM116.513 73.7128C121.546 75.3764 123.207 75.4744 127.018 74.1044C131.074 72.6852 131.953 72.5384 132.295 73.0768C132.442 73.3212 131.953 73.9576 131.22 74.4468C130.488 74.936 128.631 76.502 127.116 77.9699L124.331 80.6123L119.787 80.7103C117.295 80.7591 113.533 81.0039 111.481 81.2483C108.256 81.5911 107.67 81.5419 107.67 80.9059C107.67 80.5143 107.816 80.0251 108.012 79.8783C108.549 79.3399 110.113 74.4956 110.113 73.4192C110.113 72.0492 110.601 71.6088 111.53 72C111.969 72.1468 114.217 72.93 116.513 73.7128ZM143.191 75.4256C144.022 76.0616 145.536 77.5784 146.562 78.8019C149.005 81.8355 151.742 82.9611 156.579 82.9611C160.732 82.9611 162.882 83.5483 162.882 84.6247C162.882 85.6522 155.015 90.7902 153.403 90.7902C153.012 90.7902 149.152 87.267 144.803 82.9123C138.256 76.3552 137.035 74.8872 137.572 74.3C138.354 73.3212 141.139 73.8596 143.191 75.4256ZM150.373 92.0137C150.862 93.3837 149.103 92.7965 146.318 90.6926C142.996 88.197 134.494 83.7931 130.927 82.7655C126.823 81.5419 126.725 81.0039 129.901 78.2635C131.416 76.9424 132.979 75.7192 133.468 75.5724C134.103 75.3276 136.302 77.2848 142.214 83.2547C146.513 87.7074 150.227 91.6222 150.373 92.0137ZM69.4125 82.2759C70.5851 83.4995 71.7578 85.0651 72.0022 85.7014C72.4907 87.0226 71.9043 92.6009 71.0249 94.9005C70.7804 95.6345 70.5364 96.7601 70.5364 97.3961C70.5364 98.0325 70.3407 98.6685 70.1454 98.8153C69.9501 98.9133 67.8979 97.2005 65.6501 94.9497C63.354 92.6497 60.1292 89.8118 58.4677 88.5882C54.1194 85.3098 54.0703 85.261 56.2203 83.7931C60.4224 80.9547 62.4745 80.0739 64.8685 80.0251C67.1159 80.0251 67.4582 80.1719 69.4125 82.2759ZM79.4778 82.3251C84.6568 86.1418 84.6568 86.1418 93.1097 86.1418C97.3114 86.1418 100.878 86.2886 101.025 86.4354C101.172 86.5822 97.8002 90.1542 93.4516 94.4113L85.6341 102.094L82.6047 99.1577C80.9436 97.5429 79.1846 95.4877 78.7449 94.6069C75.0804 87.365 74.8359 86.6798 75.1291 84.2334C75.3735 82.1291 76.0573 80.5143 76.7415 80.5143C76.8881 80.5143 78.1094 81.3463 79.4778 82.3251ZM121.986 83.3035C122.181 83.4503 121.888 84.2823 121.4 85.1142C120.911 85.9458 120.129 87.7074 119.641 88.9798C118.908 90.9862 118.859 91.6222 119.347 93.2857C119.689 94.4113 119.836 95.3901 119.689 95.5369C119.054 96.1729 115.194 96.7601 110.748 96.9069C105.862 97.1025 105.716 97.0537 105.716 96.0261C105.764 95.4389 106.057 94.4113 106.448 93.7261C106.888 92.9433 107.132 91.035 107.181 88.4906V84.527L108.794 83.9887C109.624 83.7439 110.797 83.4015 111.334 83.3035C112.898 82.9611 121.644 82.9123 121.986 83.3035ZM128.435 84.1843C129.803 84.5759 131.318 85.1142 131.855 85.3587C132.393 85.6034 133.81 86.1906 135.032 86.6798C138.452 88.099 145.243 92.2093 145.781 93.1881C146.416 94.3625 145.585 94.7049 142.067 94.7049C140.162 94.7049 139.429 94.5093 139.429 94.0197C139.429 92.7965 135.667 89.3714 133.956 89.0778C132.1 88.735 126.921 90.6434 123.745 92.8454C123.305 93.139 122.572 93.2369 122.083 93.0413C121.4 92.7965 121.302 92.3561 121.595 90.4478C121.937 88.1478 122.719 86.533 124.478 84.527C125.601 83.2547 125.357 83.2547 128.435 84.1843ZM49.1845 85.0162C50.2105 85.5546 50.2105 86.6798 49.2823 88.3438C48.305 90.1054 48.3537 94.4601 49.4289 96.0749C50.5524 97.8365 54.5101 101.653 58.0771 104.394C59.6895 105.617 61.1062 106.694 61.204 106.791C61.3506 106.889 61.204 107.183 60.9109 107.476C60.5199 107.868 59.2006 107.77 56.269 107.232C50.4059 106.106 48.8913 106.204 47.1324 107.721C45.7644 108.846 45.6178 109.287 45.6178 111.635C45.6178 114.816 46.155 115.795 50.3571 120.199C54.5101 124.603 55.0477 126.266 53.0443 128.566C52.4092 129.349 52.0673 129.251 48.1097 127.196C38.4841 122.156 33.7936 118.193 31.1551 112.859C29.2984 109.14 29.0053 104.687 30.3734 100.724C32.23 95.4877 32.9141 94.1177 36.2366 89.7138C38.582 86.5822 40.6341 84.9183 42.8815 84.4291C44.5427 84.0375 47.8165 84.3311 49.1845 85.0162ZM105.52 89.2246C105.129 91.2306 104.543 93.0413 103.37 95.8305C102.686 97.3473 102.149 97.7877 100.146 98.3749C98.8263 98.7664 97.2139 99.1089 96.6276 99.1089C96.0413 99.1089 94.7708 99.4513 93.7447 99.8917C92.7187 100.283 91.7414 100.479 91.4973 100.234C91.2529 99.9896 94.1845 96.6621 97.9955 92.8454C103.663 87.1202 104.983 85.995 105.373 86.631C105.618 87.0714 105.666 88.2458 105.52 89.2246ZM168.5 88.4414C172.116 92.4541 173.142 94.9497 173.142 99.4513C173.142 102.485 172.898 103.66 172.018 105.176C170.357 108.112 169.429 108.455 167.914 106.694C167.279 105.862 164.25 102.583 161.269 99.4025C158.24 96.2217 155.748 93.2857 155.65 92.9433C155.553 92.6009 156.286 91.9646 157.263 91.5242C158.191 91.035 160.341 89.6158 162.051 88.2946C163.712 87.0226 165.324 85.9458 165.667 85.9458C165.96 85.897 167.23 87.0226 168.5 88.4414ZM56.5135 89.665C60.7155 92.8454 69.0706 101.213 69.0706 102.24C69.0706 103.66 66.6275 106.449 65.4061 106.449C64.2335 106.449 58.1258 102.143 54.8032 98.9621C52.2139 96.5153 50.5037 93.8241 50.5037 92.2582C50.5037 90.301 51.8716 87.365 52.7511 87.365C53.1421 87.365 54.8523 88.3926 56.5135 89.665ZM76.5949 94.8517C77.3278 96.3197 78.7449 98.3261 79.7218 99.4025C82.6047 102.387 82.6534 103.513 79.8196 103.513C79.2821 103.513 78.1094 103.904 77.1325 104.345L75.4223 105.176L73.712 103.513C71.8065 101.653 71.6112 100.381 72.7351 97.1517C73.1257 96.0261 73.468 94.3625 73.468 93.4817C73.468 90.399 74.5428 90.8394 76.5949 94.8517ZM136.155 92.7965C136.644 93.3837 136.839 94.0689 136.644 94.2645C136.448 94.4601 134.103 94.5093 131.514 94.3625L126.774 94.0689L127.996 93.1389C130.634 91.035 134.592 90.8882 136.155 92.7965ZM159.559 100.626C166.888 108.406 167.426 109.385 164.201 109.385C162.344 109.385 156.872 110.902 154.82 112.027C153.842 112.516 153.207 112.614 152.865 112.272C152.572 111.978 152.425 109.042 152.523 104.442C152.67 99.2069 152.523 96.9069 152.132 96.4177C151.399 95.5369 151.839 94.2157 152.816 94.2157C153.207 94.2157 156.236 97.1025 159.559 100.626ZM149.983 96.9557C150.911 98.3261 150.96 100.088 150.422 108.798C150.08 114.278 149.934 114.914 149.005 115.305C148.419 115.55 147.344 116.186 146.513 116.725C145.732 117.263 144.608 117.899 144.07 118.193C143.533 118.486 142.165 119.22 141.041 119.905L139.038 121.08L136.644 119.807C134.347 118.535 127.507 116.969 126.627 117.507C124.673 118.731 121.204 114.327 122.279 112.027C122.572 111.342 123.207 110.853 123.745 110.853C124.722 110.853 127.116 109.923 129.755 108.602C131.66 107.574 132.246 107.721 135.373 109.825C142.263 114.425 144.95 113.837 144.07 108.015C143.68 105.421 142.116 100.528 141.237 99.1089C140.406 97.7389 141.334 97.0049 144.95 96.3685C149.25 95.5857 149.103 95.5369 149.983 96.9557ZM137.963 97.3961C138.5 97.8857 139.136 98.9621 139.38 99.794C139.673 100.626 140.406 102.974 141.139 104.981C141.823 106.987 142.36 108.993 142.36 109.483C142.36 111.048 140.992 110.999 138.696 109.434C137.474 108.602 136.302 107.917 136.106 107.917C135.227 107.868 133.566 105.96 133.566 104.981C133.566 102.779 128.777 99.6472 124.185 98.8641C122.23 98.5705 121.888 98.0813 122.963 97.2493C124.038 96.3685 125.406 96.2217 131.269 96.3685C135.96 96.5153 137.181 96.6621 137.963 97.3961ZM108.842 99.5004C108.989 99.7449 107.865 100.772 106.351 101.849C104.836 102.877 102.881 104.834 101.953 106.155C99.9498 109.091 99.8523 111.195 101.611 112.859C102.784 113.935 103.224 114.033 108.11 114.033C111.823 113.984 114.315 113.691 116.416 113.055C119.738 112.076 120.374 112.321 120.374 114.523C120.374 115.061 120.715 115.991 121.106 116.578C121.79 117.507 121.644 117.703 118.859 120.15L115.878 122.743L114.315 122.009C113.484 121.569 112.458 121.08 112.067 120.933C110.357 120.199 106.106 117.703 101.709 114.816C97.1161 111.831 95.9922 110.51 97.458 109.63C97.7024 109.434 98.1909 108.798 98.4353 108.259C98.6797 107.672 99.1682 106.742 99.5101 106.204C102.54 101.36 103.419 100.185 104.347 99.6961C105.716 99.06 108.501 98.9621 108.842 99.5004ZM119.885 99.8428C121.644 100.234 123.647 100.675 124.429 100.822C126.285 101.164 126.09 102.143 123.891 103.072C122.083 103.855 120.715 105.764 120.178 108.455C119.885 109.923 118.956 110.363 113.728 111.538C108.647 112.663 104.494 112.565 103.224 111.293C101.025 109.091 104.25 105.226 112.018 100.724C115.194 98.9132 115.634 98.8641 119.885 99.8428ZM99.6079 101.066C99.9011 101.556 95.455 109.385 94.8195 109.385C94.0866 109.385 88.1747 104.736 88.126 104.149C88.126 103.611 89.7871 103.024 95.9434 101.409C99.4126 100.479 99.266 100.479 99.6079 101.066ZM71.8065 105.03C72.1975 105.715 71.2693 106.644 70.5851 106.253C70.0475 105.91 70.3898 104.492 71.0249 104.492C71.2693 104.492 71.6112 104.736 71.8065 105.03ZM82.0183 105.47C82.4093 106.057 79.9175 109.385 79.0868 109.385C78.7449 109.385 78.1094 108.846 77.6697 108.162C76.8393 106.938 76.8393 106.889 78.9402 105.96C81.432 104.883 81.6273 104.834 82.0183 105.47ZM128.191 105.47C128.777 105.813 128.777 106.057 127.996 106.889C127.458 107.476 126.627 107.917 126.139 107.917C125.601 107.917 124.722 108.162 124.185 108.455C122.768 109.238 122.279 108.406 123.061 106.547C123.647 105.176 123.989 104.981 125.601 104.981C126.627 104.981 127.8 105.176 128.191 105.47ZM90.0315 108.504C93.6469 111.391 93.8913 111.733 93.94 113.446C93.9891 115.355 93.305 117.165 92.3277 117.801C91.3995 118.437 88.2234 118.241 86.2692 117.459C84.6568 116.823 80.797 112.663 80.797 111.538C80.797 111.293 82.1649 109.532 84.9499 106.106C85.2431 105.764 85.585 105.519 85.7807 105.47C85.976 105.47 87.8815 106.84 90.0315 108.504ZM76.3505 109.825C77.8654 111.733 78.256 113.006 77.4744 113.495C76.8881 113.837 71.4159 110.999 70.6339 109.972C70.0966 109.287 70.1454 109.042 70.8783 108.553C71.318 108.21 72.3928 107.917 73.2723 107.917C74.5428 107.917 75.1778 108.308 76.3505 109.825ZM61.0087 109.972C61.3019 110.266 61.3019 110.51 61.0087 110.755C60.7155 110.951 59.787 112.027 58.9075 113.103C57.5395 114.914 57.3442 115.501 57.3442 118.291C57.3442 121.129 57.5395 121.765 59.6895 125.435C60.9596 127.636 62.4745 129.985 63.1096 130.67C64.5266 132.285 64.4775 132.726 62.7677 133.117C61.4484 133.411 56.9532 131.992 55.6827 130.866C55.4874 130.67 55.4874 129.545 55.7318 128.322C56.5135 124.701 56.025 123.331 52.7511 119.759C47.2302 113.74 46.2529 111.685 48.0606 109.874C49.0379 108.896 49.3798 108.846 54.8032 109.14C57.9305 109.336 60.7155 109.727 61.0087 109.972ZM70.1454 112.321C71.5624 113.153 73.077 114.033 73.468 114.278C73.8586 114.571 74.5915 114.914 75.0804 115.11C75.8133 115.305 75.9107 115.697 75.6667 116.676C74.8359 120.003 74.494 123.575 74.7872 126.12L75.0804 128.958L72.686 129.985C71.3668 130.572 69.5103 131.209 68.5817 131.453C66.6275 131.894 66.139 131.502 62.572 126.022C58.2237 119.416 58.2237 115.942 62.572 112.419C64.9664 110.461 66.8228 110.412 70.1454 112.321ZM168.842 111.685C170.601 113.789 173.142 119.856 173.142 122.009C173.142 124.456 171.139 127.539 168.159 129.594C164.787 131.992 163.663 131.845 164.445 129.104C164.689 128.126 164.836 126.413 164.689 125.337C164.396 123.184 163.468 122.254 159.95 120.541C156.676 118.927 153.598 116.333 153.94 115.501C154.233 114.621 158.68 112.321 160.097 112.321C160.683 112.272 162.295 111.978 163.615 111.587C166.937 110.657 167.963 110.706 168.842 111.685ZM100.732 116.578C105.96 120.101 106.009 120.101 111.041 122.645L115.097 124.701L114.803 126.462C114.657 127.441 114.51 129.888 114.51 131.943C114.51 135.662 114.51 135.662 112.947 136.444C109.673 138.01 107.865 138.646 105.618 138.94C102.735 139.38 102.637 138.891 105.129 136.053C107.035 133.9 108.647 130.132 108.647 127.881C108.647 127.147 108.158 126.071 107.572 125.533C106.448 124.456 104.64 124.407 100.048 125.337C98.8263 125.581 98.0934 125.337 96.4319 124.113C94.6242 122.841 93.8913 122.597 91.3995 122.597C89.2008 122.597 88.3213 122.401 87.8328 121.716C87.4905 121.275 87.1486 120.737 87.1486 120.59C87.1486 120.395 88.6144 120.15 90.3734 120.052C94.0866 119.807 95.4549 118.731 95.4549 116.039C95.4549 114.621 95.7481 113.789 96.2853 113.789C96.3832 113.789 98.3865 115.061 100.732 116.578ZM80.015 117.459C80.5526 117.85 81.3342 118.193 81.823 118.193C82.7025 118.193 84.8521 120.737 85.3897 122.401C85.6828 123.331 85.2431 123.673 82.1162 125.239C80.1615 126.218 78.256 127 77.9628 127C76.253 127 76.0086 122.156 77.5722 118.535C78.4517 116.529 78.647 116.431 80.015 117.459ZM153.549 118.78C154.82 119.954 156.969 121.422 158.289 122.058C163.077 124.358 163.859 126.12 161.856 129.936C160.439 132.628 159.706 132.921 156.774 131.992C152.816 130.719 142.36 123.869 142.36 122.499C142.36 121.961 143.631 120.884 145.781 119.612C147.686 118.486 149.347 117.41 149.494 117.165C150.031 116.284 151.351 116.773 153.549 118.78ZM133.81 120.786C135.96 121.618 136.253 122.401 134.787 123.379C133.761 124.065 133.175 123.869 128.289 121.177C125.357 119.563 129.803 119.269 133.81 120.786ZM127.018 122.695C128.679 123.82 129.999 124.897 129.852 125.141C129.412 125.826 124.233 125.581 121.497 124.701C118.468 123.722 118.272 122.988 120.862 121.275C122.768 119.954 122.865 119.954 127.018 122.695ZM94.1357 125.141C95.9434 125.826 95.7968 126.658 93.6469 127.686C91.8879 128.517 91.8392 128.517 90.9597 127.392C90.0802 126.218 89.8358 124.945 90.4221 124.407C90.7644 124.065 91.8392 124.26 94.1357 125.141ZM140.895 125.875C140.895 126.854 140.699 127.049 139.82 126.902C138.598 126.756 138.012 125.141 138.989 124.554C139.966 123.918 140.895 124.554 140.895 125.875ZM88.37 127.294C88.761 128.273 89.1029 129.154 89.1029 129.251C89.1029 129.349 87.6371 130.132 85.8294 130.964C83.9726 131.796 82.3602 132.579 82.2137 132.677C82.0183 132.774 81.2854 132.383 80.6013 131.845C78.5492 130.23 79.0868 129.056 82.7512 127.196C86.8555 125.092 87.4418 125.092 88.37 127.294ZM122.768 127.196C126.285 127.734 127.849 129.056 125.894 129.79C125.406 129.985 123.403 131.062 121.448 132.236C116.513 135.172 116.269 135.123 116.562 131.013C116.709 129.202 117.051 127.196 117.393 126.609C117.93 125.63 118.077 125.581 119.298 126.218C120.031 126.56 121.595 127 122.768 127.196ZM105.716 127.245C106.888 128.664 104.494 135.76 103.224 134.487C102.979 134.242 102.295 132.579 101.611 130.768L100.439 127.49L101.465 127.245C104.054 126.707 104.494 126.609 104.787 126.56C104.983 126.56 105.373 126.854 105.716 127.245ZM137.132 127.881C137.963 128.322 139.233 129.104 139.869 129.545L141.041 130.377L140.162 132.481C138.94 135.27 137.426 137.032 136.888 136.2C136.693 135.857 136.497 134.976 136.497 134.292C136.497 132.628 135.276 131.6 132.491 130.866C129.95 130.181 129.901 129.545 132.393 127.979C134.201 126.805 135.129 126.805 137.132 127.881ZM148.224 129.936C150.129 131.404 156.139 134.34 157.214 134.34C158.826 134.34 158.484 135.564 156.236 137.815C154.917 139.136 153.696 140.212 153.501 140.212C153.305 140.212 152.621 139.283 151.937 138.108C151.253 136.934 149.054 134.389 147.002 132.432C144.999 130.475 143.337 128.566 143.337 128.273C143.337 126.609 144.413 127 148.224 129.936ZM32.6209 130.377C37.0183 132.53 40.2918 133.802 42.344 134.194C44.3961 134.585 44.4452 135.27 42.5396 137.032C40.4384 138.94 38.8752 142.121 38.0931 145.937C37.3602 149.754 36.1877 150.439 31.8392 149.607C26.3668 148.482 25.0965 146.084 25.0965 136.542C25.0965 127.686 25.8294 127.098 32.6209 130.377ZM99.0216 129.985C99.5101 130.866 99.9989 132.774 100.194 134.34C100.439 136.885 100.341 137.228 99.3148 137.962C96.7742 139.723 95.5524 138.842 93.8426 134.047C93.4516 132.97 92.9631 131.747 92.8165 131.306C92.5234 130.67 92.914 130.279 94.5755 129.545C97.458 128.175 97.9955 128.224 99.0216 129.985ZM78.0607 132.334L79.4286 133.753L75.8133 135.515C73.8099 136.494 71.8556 137.276 71.4646 137.276C70.5364 137.228 68.924 134.928 69.2659 134.047C69.4125 133.655 69.9501 133.215 70.3898 133.068C70.8783 132.921 72.1488 132.383 73.2236 131.845C75.862 130.622 76.4483 130.67 78.0607 132.334ZM90.8619 132.236C91.0085 132.726 91.4482 133.704 91.8392 134.438C92.914 136.396 92.7187 137.423 91.4482 137.13C88.6144 136.444 85.7316 135.172 85.4875 134.487C85.1453 133.606 85.5363 132.872 86.367 132.872C86.7576 132.872 87.6862 132.53 88.4191 132.138C90.2268 131.209 90.52 131.209 90.8619 132.236ZM146.318 134.683C149.836 138.402 151.253 140.506 151.057 141.778C150.96 142.561 149.787 143.393 146.758 144.959C142.507 147.112 140.895 147.552 140.895 146.427C140.895 146.133 140.015 144.861 138.94 143.637C137.865 142.414 136.986 141.191 136.986 140.946C136.986 140.653 137.865 139.478 138.891 138.304C139.917 137.13 141.285 135.221 141.872 134.047C142.458 132.872 143.093 131.894 143.289 131.894C143.435 131.894 144.803 133.166 146.318 134.683ZM54.7545 132.921C55.8293 133.313 55.9271 133.508 55.3896 133.851C54.3635 134.487 52.6045 134.438 52.1648 133.802C52.0182 133.508 52.1648 133.068 52.5071 132.824C53.3374 132.285 53.1421 132.285 54.7545 132.921ZM134.347 134.096C135.764 136.298 135.031 138.744 132.149 141.533C128.533 145.057 128.973 147.503 133.566 149.461C136.302 150.635 136.937 151.32 135.667 151.809C135.178 151.956 134.445 152.348 134.054 152.69C133.663 153.033 132.637 153.522 131.758 153.816C130.39 154.256 129.95 154.158 128.338 153.082C125.601 151.271 123.94 149.559 122.035 146.72C120.715 144.665 120.374 143.735 120.374 141.729C120.374 139.43 120.52 139.087 122.719 136.885C125.601 133.949 127.703 132.921 130.976 132.921C133.175 132.872 133.663 133.019 134.347 134.096ZM85.4384 137.228C86.8067 137.815 88.6144 138.451 89.4939 138.598C90.3734 138.744 91.2041 139.087 91.3507 139.283C91.8879 140.212 88.6144 140.848 82.2137 141.093C75.471 141.338 73.468 140.946 73.468 139.527C73.468 138.94 77.8654 136.64 80.5525 135.808C81.5786 135.466 81.6273 135.466 85.4384 137.228ZM63.6471 136.885C66.2365 138.108 67.3604 139.283 66.4809 139.821C66.139 140.017 63.4515 140.212 60.4224 140.212C53.875 140.212 52.3114 140.848 48.6469 144.812C47.0345 146.623 45.6178 147.601 43.9563 148.188C39.6568 149.656 39.217 149.167 40.585 144.567C41.4645 141.533 44.5427 137.276 45.8619 137.276C46.2041 137.276 46.7414 136.934 47.0836 136.542C47.5721 135.955 49.0379 135.808 54.5592 135.808C60.6177 135.808 61.6925 135.955 63.6471 136.885ZM119.885 136.2C119.885 136.444 119.543 137.325 119.103 138.157C117.051 142.316 118.37 146.476 123.354 151.565C124.966 153.179 126.237 154.794 126.237 155.186C126.237 156.36 120.52 156.262 117.637 155.088L115.878 154.354L116.22 146.182C116.513 138.304 116.611 137.962 117.735 136.885C119.005 135.76 119.885 135.515 119.885 136.2ZM114.266 144.127C114.217 150.097 113.875 151.956 112.654 151.956C112.214 151.956 110.406 151.271 108.647 150.439C104.543 148.531 102.735 147.699 101.66 147.357C100.927 147.112 100.829 146.769 101.122 145.252C101.611 142.61 102.198 141.68 103.37 141.68C104.592 141.68 109.282 140.359 111.334 139.43C114.119 138.206 114.266 138.5 114.266 144.127ZM99.3635 141.925C99.8523 142.512 99.8032 142.903 99.1682 143.882C98.1421 145.448 97.5071 145.448 97.1161 143.882C96.5298 141.533 97.9955 140.261 99.3635 141.925ZM58.7122 142.121C59.2006 142.414 58.81 142.806 57.2464 143.589C56.0737 144.127 54.7058 144.616 54.266 144.616C53.8263 144.616 53.3374 144.812 53.1909 145.105C53.0443 145.35 52.5558 145.595 52.1648 145.595C50.8456 145.595 53.0443 143.344 55.1455 142.512C57.4908 141.631 57.8814 141.582 58.7122 142.121ZM94.8686 143.491C95.0152 144.567 94.8686 144.616 92.0836 144.616C88.126 144.616 86.7576 145.791 86.3179 149.363C86.1713 150.782 85.8294 151.956 85.5363 151.956C84.9012 151.956 78.1094 144.665 78.1094 143.931C78.1094 143.589 80.2594 143.295 84.5589 143.099C88.126 142.953 91.2041 142.708 91.3995 142.463C91.5948 142.267 92.4255 142.169 93.2563 142.267C94.331 142.365 94.7708 142.708 94.8686 143.491ZM69.4612 142.953L72.0022 143.295V145.399C72.0022 147.21 71.7578 147.65 70.0475 149.02C68.1911 150.488 68.0445 150.537 66.5296 149.852C60.4224 147.112 56.3181 146.769 54.2169 148.678C53.5331 149.314 52.8002 150.341 52.5558 150.977C51.9695 152.592 52.8002 155.626 54.1195 156.556C54.6567 156.996 55.5361 157.632 56.0737 157.975C56.9045 158.611 56.9045 158.758 56.2203 160.079C54.9989 162.428 51.1879 166.44 49.2823 167.321C47.7187 168.055 47.4255 168.104 46.0085 167.37C45.129 166.978 43.8589 165.853 43.2725 164.923C42.2465 163.455 42.1486 163.015 42.5884 161.156C43.2234 158.415 44.0542 156.311 45.911 152.69C47.0836 150.341 47.8165 149.559 49.5755 148.678C50.7481 148.091 52.3114 147.601 52.9955 147.601C53.7284 147.552 54.5592 147.21 54.9011 146.818C55.243 146.427 55.7806 146.084 56.1716 146.084C56.7579 146.084 57.8814 145.693 61.4972 144.078C64.8685 142.61 65.5036 142.512 69.4612 142.953ZM136.693 144.371C137.67 145.301 138.452 146.378 138.452 146.769C138.452 147.846 136.79 148.139 134.592 147.552C132.197 146.916 131.416 145.203 132.833 143.637C134.054 142.267 134.689 142.414 136.693 144.371ZM81.3342 151.222C83.9239 154.06 84.7055 155.333 84.7055 156.947C84.7055 158.17 83.6307 161.498 83.0931 162.085C82.8978 162.281 81.041 160.764 78.9402 158.758C76.8881 156.703 74.2496 154.354 73.1257 153.473C71.9531 152.592 71.0249 151.663 71.0249 151.369C71.0249 151.075 71.5624 150.488 72.1975 149.95C72.8326 149.461 73.6146 148.335 73.9565 147.454C75.1291 144.469 75.4223 144.421 77.3278 146.671C78.3051 147.846 80.1128 149.852 81.3342 151.222ZM152.132 146.28C152.132 148.237 150.813 150.635 148.614 152.69C145.048 156.018 143.631 156.605 138.843 156.605C133.663 156.605 132.686 156.018 135.373 154.354C136.399 153.767 138.012 152.397 138.989 151.418C140.015 150.39 141.628 149.363 142.654 149.069C143.728 148.775 145.976 147.748 147.735 146.818C151.546 144.812 152.132 144.763 152.132 146.28ZM93.5003 147.161C94.9174 147.503 96.1879 148.091 96.4319 148.58C96.9208 149.461 95.8947 152.152 93.9891 155.137C93.4516 155.92 92.8165 157.094 92.5234 157.681C91.1063 160.96 88.126 156.703 88.126 151.418C88.126 149.118 88.3213 148.384 89.2008 147.552C90.4712 146.378 90.2756 146.427 93.5003 147.161ZM102.149 149.705C104.934 151.124 110.113 153.424 110.455 153.424C110.65 153.424 111.286 153.865 111.872 154.452C112.947 155.43 112.947 155.528 112.116 157.241C111.676 158.268 110.895 159.688 110.357 160.519C108.842 162.917 104.445 167.076 103.077 167.419C100.927 167.957 100.487 166.93 100.096 160.079C99.9011 156.605 99.5592 153.131 99.3148 152.299C98.9238 150.831 99.4613 149.02 100.341 149.02C100.536 149.02 101.367 149.314 102.149 149.705ZM60.813 150.048C61.7416 150.341 62.7677 150.684 63.1583 150.782C63.989 151.027 58.81 156.36 57.7839 156.36C56.5135 156.36 54.4126 153.963 54.4126 152.495C54.4126 149.999 57.2464 148.873 60.813 150.048ZM43.9076 150.977C44.0542 151.222 43.9076 152.054 43.5166 152.788C41.4645 156.947 40.7807 158.073 40.4384 157.926C40.1944 157.877 39.9987 156.36 39.9987 154.55C39.9987 151.467 40.0965 151.222 41.2204 150.929C43.0281 150.439 43.5657 150.439 43.9076 150.977ZM72.9791 156.066C75.9107 158.464 78.9402 161.743 78.1585 161.743C78.012 161.743 76.6436 161.156 75.0804 160.47C73.077 159.59 71.2202 159.149 68.8262 159.051C65.2104 158.904 61.7416 157.779 61.7416 156.703C61.7416 155.871 64.1843 153.571 65.4061 153.277C67.7023 152.641 69.6569 153.424 72.9791 156.066ZM98.0934 157.632C98.484 160.519 98.484 164.434 98.0934 164.826C97.7024 165.217 94.3311 163.406 93.305 162.281C92.5234 161.449 92.6208 161.204 94.2332 158.758C95.1618 157.339 95.9434 155.969 95.9434 155.773C95.9434 155.528 96.3344 155.381 96.8716 155.381C97.5558 155.381 97.849 155.871 98.0934 157.632ZM88.6144 160.03C89.6405 162.085 89.6405 162.33 88.9076 163.162C88.4679 163.651 88.126 164.287 88.126 164.63C88.126 164.923 87.5396 165.462 86.8555 165.755C85.3409 166.44 84.5589 165.608 84.9012 163.7C85.1453 162.428 87.0508 157.828 87.3931 157.828C87.4905 157.828 88.0281 158.807 88.6144 160.03ZM62.0348 159.834C62.1813 160.128 61.4484 161.302 60.4224 162.379C56.7088 166.244 55.8784 167.957 55.8784 171.627C55.8784 175.248 56.8066 178.135 58.7122 180.729C59.8848 182.245 59.8848 182.343 59.0541 183.273C58.5656 183.811 57.8814 184.252 57.5395 184.252C57.1976 184.252 56.3181 184.545 55.5361 184.937C50.6503 187.383 44.7383 187.922 42.4905 186.16C40.3409 184.497 39.7546 182.735 39.7546 178.233C39.7546 173.976 40.2431 170.404 41.1713 167.908L41.7089 166.538L43.2725 168.055C44.7871 169.523 45.8619 169.817 48.7935 169.621C50.7481 169.425 53.9729 166.734 57.0019 162.672C58.81 160.275 59.8361 159.296 60.6177 159.296C61.204 159.296 61.8391 159.541 62.0348 159.834ZM74.7872 162.819C79.7709 165.315 79.8196 165.364 79.8196 166.196C79.8196 167.223 77.9628 169.572 77.1325 169.572C76.5949 169.572 73.468 165.951 70.6339 162.134C69.6078 160.764 71.0249 161.009 74.7872 162.819ZM67.9954 163.211C70.292 164.874 74.8847 170.404 74.9338 171.578C74.9338 172.899 64.2335 181.316 62.4745 181.316C60.4224 181.316 57.0019 173.046 57.8327 170.061C58.419 168.006 59.9335 165.706 61.8391 163.896C64.5266 161.351 65.3083 161.253 67.9954 163.211ZM93.9891 165.413C95.0639 166.098 96.1388 166.636 96.3832 166.636C97.0673 166.636 97.9955 168.496 97.6536 169.083C97.5071 169.376 95.9922 169.572 94.3311 169.572C91.5948 169.572 90.52 169.23 88.6632 167.81C88.37 167.566 91.0576 164.189 91.5948 164.189C91.8392 164.189 92.914 164.728 93.9891 165.413ZM84.217 168.349C84.9012 169.18 84.5589 169.768 82.0183 172.116C80.3572 173.731 79.5265 173.829 78.8914 172.606C78.5492 171.921 78.8423 171.285 80.3081 169.67C82.3602 167.468 83.2397 167.174 84.217 168.349ZM104.983 172.557C107.719 175.101 108.403 177.597 106.692 178.967C105.276 180.141 103.419 180.093 100.634 178.869C98.7772 178.037 98.3865 177.646 98.3865 176.52C98.3865 174.612 99.8523 171.138 100.781 170.893C102.442 170.453 102.881 170.599 104.983 172.557ZM91.0085 174.367C92.914 176.178 94.4776 177.841 94.4776 178.086C94.4776 179.75 89.9824 184.105 86.1713 186.111C83.2397 187.677 78.9889 188.656 74.9338 188.656C71.2693 188.656 70.4873 188.509 68.3377 187.236C67.0185 186.454 65.4548 185.377 64.9664 184.79C64.0378 183.763 64.0378 183.713 65.1617 182.539C65.7967 181.854 66.5296 181.316 66.774 181.316C67.165 181.316 72.5394 177.352 73.9077 176.031C74.2984 175.689 75.1291 175.052 75.7642 174.612C76.7902 173.927 76.9859 173.927 77.8163 174.661C79.4286 176.129 81.4808 175.639 83.826 173.291C84.9499 172.116 86.2692 171.138 86.7089 171.089C87.1486 171.04 89.1029 172.508 91.0085 174.367ZM96.6763 173.487C96.6763 175.003 95.4549 175.297 93.7935 174.171C91.7905 172.899 92.1324 171.921 94.6242 172.116C96.4319 172.263 96.6763 172.41 96.6763 173.487Z" fill="black"/>
<path d="M310.253 36.3483C297.403 38.9907 286.605 44.7158 277.957 53.3769C275.074 56.3128 270.432 62.0379 269.797 63.4571C269.602 63.8483 268.967 64.9739 268.429 65.9035C267.549 67.3715 266.817 68.7418 265.009 72.3626C263.69 74.9562 261.442 83.0789 260.709 87.8256C259.927 92.9635 260.179 101.658 260.538 104.854C260.802 107.203 260.729 106.796 261.095 108.447C261.462 110.099 261.767 110.833 262.195 112.117C262.744 113.768 263.047 114.578 263.66 116.337C265.126 120.544 267.012 125.357 270.384 130.495C275.905 138.862 288.657 150.068 292.712 150.068C293.592 150.068 294.423 149.872 294.569 149.628C294.813 149.236 293.201 147.866 291.686 147.132C291.393 146.985 289.683 145.908 287.875 144.685C282.989 141.456 283.625 140.526 289.732 141.994C293.885 143.022 308.836 142.972 314.651 141.945C326.23 139.939 335.66 136.66 345.383 131.278C347.045 130.397 352.126 126.923 355.546 124.378C358.478 122.176 359.651 120.708 358.429 120.708C357.403 120.708 353.055 122.91 350.807 124.574C348.706 126.189 346.507 127.559 342.501 129.859C335.807 133.675 326.475 136.954 315.872 139.107C309.716 140.379 293.152 140.379 287.777 139.107C281.279 137.541 278.348 136.367 276.882 134.654C273.755 130.984 273.364 130.446 273.364 129.957C273.364 129.369 275.074 129.565 277.517 130.397C279.569 131.131 285.53 132.305 290.221 132.941C298.136 133.969 310.546 133.382 317.436 131.669C318.999 131.278 320.709 130.984 321.247 130.984C322.126 130.984 322.908 130.691 326.621 129.076C328.625 128.195 318.999 128.782 311.963 129.957C308.445 130.544 303.559 130.984 300.383 130.984C295.204 130.984 284.699 129.712 280.448 128.537C270.432 125.748 270.384 125.748 268.527 121.98C266.426 117.772 266.475 117.185 268.869 118.457C272.093 120.121 278.348 122.078 281.181 122.274C283.331 122.421 284.357 121.785 283.038 121.149C280.791 120.023 278.326 119.653 275.204 118.457C271.93 117.43 269.553 116.011 266.182 114.053C264.814 113.27 264.43 112.484 263.66 109.915C263.111 108.08 263.111 107.163 263.111 106.796C263.111 105.744 262.957 105.05 263.543 105.05C264.178 105.05 267.522 108.08 268.625 109.111C270.073 110.466 278.543 116.158 285.237 118.898C288.901 120.464 290.416 120.953 297.305 122.959C304.927 124.595 307.664 125.308 320.025 125.357C332.186 124.962 332.919 124.574 342.012 123.106C343.087 122.812 344.748 122.421 345.676 122.176C353.103 120.415 364.195 115.179 373.526 109.013C375.823 107.497 377.828 106.175 378.07 106.126C378.707 105.833 378.462 109.16 377.582 111.998C376.703 114.738 376.703 114.787 373.965 115.521C372.5 115.962 370.594 116.304 369.766 116.304C367.809 116.304 365.709 117.919 366.541 118.8C366.981 119.24 367.86 119.289 370.546 118.849C374.991 118.115 374.991 118.115 374.991 119.24C374.991 120.708 373.379 121.246 368.249 121.54C365.465 121.687 363.071 122.078 362.436 122.47C360.237 123.84 361.165 124.231 366.688 124.085C369.619 124.036 372.159 124.085 372.305 124.232C372.793 124.721 370.645 127.901 369.421 128.439C368.787 128.733 365.954 129.125 363.071 129.32C357.989 129.663 357.892 129.663 357.892 130.837V132.061L362.436 131.914C366.688 131.718 366.929 131.767 366.783 132.697C366.688 133.235 366.1 134.165 365.416 134.752C364.341 135.731 363.657 135.877 359.895 135.877C355.693 135.877 354.471 136.269 354.471 137.688C354.471 138.128 355.302 138.324 357.354 138.324C358.967 138.324 360.432 138.569 360.579 138.862C360.774 139.156 360.09 140.134 359.064 141.064C357.305 142.581 356.866 142.728 354.129 142.728C351.442 142.728 351.1 142.875 350.758 143.804C350.563 144.49 350.709 145.028 351.247 145.419C351.686 145.762 352.029 146.153 352.029 146.3C352.029 146.692 343.087 151.046 342.305 151.046C342.012 151.046 343.38 148.894 345.335 146.251C347.338 143.658 349.097 141.162 349.244 140.77C349.439 140.379 350.074 139.254 350.611 138.324C351.198 137.394 352.077 135.731 352.615 134.654C353.152 133.577 353.934 132.061 354.325 131.327C354.814 130.397 354.911 129.761 354.618 129.467C353.885 128.733 351.296 131.18 350.025 133.822C344.748 144.783 335.416 154.472 330.042 154.472C328.233 154.472 328.136 153.591 329.846 151.976C332.777 149.285 340.302 139.205 340.302 137.933C340.302 136.22 337.126 138.52 334.586 142.092C332.045 145.762 330.286 147.768 325.986 152.123L323.152 154.961H319.878C314.993 154.961 314.699 154.521 317.631 151.438C320.611 148.208 323.885 143.756 323.543 143.364C322.663 142.532 320.416 144.196 316.605 148.649C314.26 151.34 311.866 153.738 311.328 153.934C310.742 154.178 309.374 154.031 308.103 153.64C306.002 153.004 305.856 153.053 304.683 154.178L303.511 155.401L304.927 155.695C305.709 155.842 307.712 156.282 309.374 156.674C313.527 157.701 328.527 157.701 332.924 156.674C337.224 155.695 341.182 154.521 342.989 153.738C343.82 153.395 345.432 152.71 346.654 152.221C347.875 151.732 349.194 151.096 349.585 150.851C349.976 150.557 351.1 149.872 352.029 149.334C355.693 147.328 360.725 143.413 364.292 139.841C367.714 136.367 371.913 131.229 372.697 129.516C372.892 129.125 373.478 128.097 373.965 127.314C374.504 126.482 375.383 124.868 375.97 123.644C376.556 122.421 377.19 121.051 377.436 120.61C378.022 119.583 379.488 114.934 380.514 111.166C382.76 102.652 382.859 91.6423 380.807 83.2749C380.514 82.1981 380.122 80.5345 379.88 79.6049C377.974 71.7754 371.18 60.1784 364.683 53.6216C360.481 49.4133 353.738 44.3242 350.367 42.8562C349.781 42.6118 348.999 42.2202 348.608 41.9754C347.875 41.5842 345.774 40.6542 342.989 39.4799C340.449 38.4523 337.273 37.5715 332.533 36.544C326.914 35.3697 315.579 35.2718 310.253 36.3483ZM327.745 40.5566C329.504 42.5626 333.559 48.3369 334.732 50.4897C339.862 60.0316 343.234 68.6439 345.335 77.6473C346.8 83.8129 347.631 88.9508 347.631 91.9847C347.631 95.8503 348.071 96.5843 349.488 95.2631C350.758 94.0399 350.807 93.1591 349.781 86.7C348.608 78.9685 346.019 69.0842 343.967 64.1911C343.624 63.3591 342.843 61.4996 342.256 60.0316C341.182 57.3892 338.787 52.3981 337.712 50.4897C335.221 46.1838 333.999 44.2754 332.338 42.0246C331.263 40.6054 330.53 39.3331 330.725 39.1375C331.361 38.5014 341.475 41.3394 344.064 42.9054C345.579 43.835 349.238 48.6757 351.975 54.4988C352.854 56.3583 353.294 57.2512 353.807 58.5357C354.173 59.4532 354.357 60.0037 354.906 61.4717C355.456 62.9396 355.603 63.4604 356.006 64.5911C356.922 67.1601 357.745 71.0906 358.136 73.8798C358.38 75.6902 358.625 76.1794 359.211 76.0817C361.067 75.739 360.921 71.8734 358.82 65.6591C358.527 64.8271 358.136 63.5059 357.892 62.7231C357.354 60.7168 354.911 55.0404 352.761 50.9793C350.709 47.0157 350.563 46.037 352.126 46.9177C353.788 47.8473 358.38 51.4197 360.432 53.328C362.973 55.7744 363.755 58.7596 363.755 66.4419C363.755 74.7114 362.338 80.7793 358.82 87.2872C351.686 100.548 337.321 111.117 318.559 116.94C317.24 117.332 315.384 117.821 314.455 117.968C310.888 118.604 310.497 120.219 313.918 120.219C316.556 120.219 320.025 119.387 324.178 117.772C325.644 117.185 327.452 116.549 328.136 116.304C328.82 116.108 329.797 115.717 330.335 115.424C330.823 115.13 332.24 114.445 333.462 113.858C335.758 112.732 336.051 112.585 340.058 110.237C343.527 108.231 348.364 104.365 351.833 100.939C355.009 97.7587 359.944 91.4464 360.774 89.3912C361.067 88.7064 361.507 87.8256 361.703 87.434C363.608 84.1065 364.439 81.6109 365.709 75.4454C366.296 72.8522 366.636 68.9863 366.688 66.0015C366.688 59.3956 367.028 59.3956 370.839 65.9035C371.133 66.3931 371.671 67.1271 372.012 67.5675C372.452 68.1055 372.598 69.231 372.404 71.3842C371.818 77.7453 370.103 84.054 365.9 92.6663C363.163 98.3426 362.338 99.1778 359.211 103.435C356.817 106.713 350.22 113.368 349.488 113.368C349.292 113.368 349.097 113.711 349.097 114.102C349.097 115.081 351.002 115.032 352.517 114.053C354.764 112.536 357.989 109.258 360.774 105.539C363.804 101.527 366.266 97.4372 366.688 96.4867C366.999 95.9692 366.688 96.4867 367.322 95.3123C368.802 92.5719 373.478 81.0729 373.965 77.4517C374.112 76.3753 374.504 75.4454 374.797 75.3478C375.482 75.103 376.655 77.5497 377.681 81.3173C378.561 84.5469 378.707 83.7641 375.724 92.3272C374.698 95.2143 370.986 102.75 370.4 103.19C369.326 103.924 370.594 104.12 371.913 103.435C373.723 102.505 374.603 101.38 375.871 98.6886C376.41 97.4651 377.337 95.4099 377.974 94.1379C379.341 91.0551 379.88 91.7891 379.88 96.8291C379.88 101.282 379.535 101.771 373.625 105.784C367.322 110.09 361.849 113.172 355.937 115.668C355.009 116.108 353.592 116.745 352.859 117.087C352.077 117.479 351.425 117.728 350.807 117.968C349.776 118.368 348.738 118.683 347.76 119.09C343.998 120.656 336.686 121.834 329.748 122.617C317.436 124.085 304.927 123.106 291.511 118.723C290.565 118.438 289.855 118.231 289.129 117.989C288.029 117.622 286.563 117.071 285.647 116.704C284.914 116.313 284.072 115.983 282.166 115.053C275.521 111.97 270.774 108.279 266.67 104.218C262.908 100.548 262.615 100.107 262.615 98.2482C262.615 95.9971 263.397 95.1655 264.032 96.8291C264.618 98.3459 267.696 101.331 267.892 100.646C268.038 100.303 267.549 98.7375 266.914 97.0739C264.032 89.9784 263.396 84.3024 265.058 80.6813C266.182 78.2345 266.817 78.3325 267.159 80.9261C267.599 84.3512 271.898 94.0399 273.95 96.3399C274.585 96.9759 275.66 98.2483 276.344 99.1779C277.077 100.157 277.81 100.695 278.152 100.45C279.032 99.9118 278.836 98.9822 277.517 97.4163C276.296 95.9971 272.24 88.0212 270.823 84.2533C267.94 76.7666 267.745 72.5586 270.041 68.4482C273.071 62.9187 274.341 62.0379 274.341 65.3163C274.341 66.3439 274.634 68.1546 275.025 69.3778C275.367 70.5522 276.051 72.8522 276.54 74.467C277.81 78.6261 282.11 87.532 282.745 87.336C284.357 86.798 284.26 85.5256 282.305 81.5133C278.983 74.6138 277.761 70.7478 276.784 63.8483C276.344 60.6679 276.344 59.8848 276.98 58.6616C277.859 56.9 282.11 53.0833 282.696 53.4748C282.94 53.6216 283.203 54.698 283.449 56.8512C283.945 61.1902 283.931 62.4295 284.914 66.7931C285.497 69.3778 285.831 70.463 286.068 71.1882C286.304 71.9138 286.563 72.298 286.801 73.0478C287.037 73.7976 287.296 74.3165 287.533 74.8582C287.533 76.1306 288.999 76.5221 289.781 75.4946C290.269 74.7606 290.269 74.3202 289.732 73.0478C287.045 66.6867 286.014 60.9212 285.774 56.5084C285.535 52.096 285.281 50.6453 285.281 50.6453L287.094 49.2177C287.973 48.3857 289.195 47.5049 289.732 47.2602C290.269 47.0157 291.589 46.2817 292.664 45.6454C293.739 45.0094 294.765 44.569 295.009 44.7158C295.204 44.8138 295.351 45.9881 295.351 47.2602C295.351 50.1473 296.572 58.2212 297.354 60.5212C297.696 61.4508 297.989 62.5271 298.087 62.8207C298.331 63.7995 299.162 63.5547 299.797 62.4295C300.188 61.6464 300.188 60.8636 299.846 59.5912C298.527 55.1384 297.647 49.1685 297.941 46.4774C298.185 44.2266 298.478 43.3946 299.504 42.5138C301.703 40.6054 303.12 41.0458 305.611 44.471C308.494 48.3857 312.208 53.7684 312.599 54.698C312.794 55.0896 313.38 56.0192 313.918 56.8512C317.045 61.6955 321.491 71.1882 322.713 75.4454C322.908 76.2285 323.348 77.5497 323.641 78.3813C324.618 81.3173 325.595 85.8192 326.426 91.104C327.207 96.2907 327.207 102.212 326.328 108.622C325.986 110.922 326.035 110.922 327.159 110.53C328.673 109.943 329.455 106.567 329.504 100.205C329.699 81.9045 322.468 62.5271 308.445 43.933C307.077 42.1222 306.247 40.6054 306.491 40.3606C307.126 39.7246 311.963 38.5014 312.696 38.795C314.064 39.3331 322.077 50.5389 325.253 56.3616C326.572 58.8084 329.504 64.7783 330.725 67.6163C334.976 77.3049 337.273 89.636 336.784 100.107L336.491 105.441L337.664 104.952C338.348 104.609 338.983 103.827 339.178 103.19C339.325 102.505 339.325 98.2971 339.178 93.8443C338.885 86.2108 338.543 84.0576 336.589 76.4241C335.318 71.7266 333.364 66.6375 330.237 60.2764C327.989 55.7744 327.794 55.3832 325.546 51.8109C324.765 50.6365 324.178 49.6089 324.178 49.5113C324.178 49.0709 317.729 40.2138 317.289 40.0671C316.507 39.7735 316.8 38.5991 317.729 38.3055C318.169 38.1587 320.221 38.1587 322.224 38.2567C325.839 38.4523 325.888 38.4523 327.745 40.5566Z" fill="black"/>
</g>
<defs>
<clipPath id="clip0_507_2">
<rect width="450" height="298" fill="white"/>
</clipPath>
</defs>
</svg>
